HIERARCHY
ROOT Hips
{
	OFFSET	0.000000	0.000000	0.000000
	CHANNELS 6 Xposition Yposition Zposition Zrotation Xrotation Yrotation
	JOINT LeftHip
	{
		OFFSET	4.740440	-3.195970	-0.322709
		CHANNELS 3 Zrotation Xrotation Yrotation
		JOINT LeftKnee
		{
			OFFSET	-1.605680	-15.592300	1.005510
			CHANNELS 3 Zrotation Xrotation Yrotation
			JOINT LeftAnkle
			{
				OFFSET	-0.632401	-16.421000	-1.413730
				CHANNELS 3 Zrotation Xrotation Yrotation
				End Site
				{
					OFFSET	0.008423	-2.933000	-1.684880
				}
			}
		}
	}
	JOINT RightHip
	{
		OFFSET	-4.740440	-3.195970	-0.322709
		CHANNELS 3 Zrotation Xrotation Yrotation
		JOINT RightKnee
		{
			OFFSET	1.605680	-15.592300	1.005510
			CHANNELS 3 Zrotation Xrotation Yrotation
			JOINT RightAnkle
			{
				OFFSET	0.632401	-16.421000	-1.413730
				CHANNELS 3 Zrotation Xrotation Yrotation
				End Site
				{
					OFFSET	-0.008423	-2.933000	-1.684880
				}
			}
		}
	}
	JOINT Chest
	{
		OFFSET	0.000000	3.468200	0.078401
		CHANNELS 3 Zrotation Xrotation Yrotation
		JOINT LeftCollar
		{
			OFFSET	3.857650	15.070700	-0.011583
			CHANNELS 3 Zrotation Xrotation Yrotation
			JOINT LeftShoulder
			{
				OFFSET	3.979720	-1.940530	-0.165223
				CHANNELS 3 Zrotation Xrotation Yrotation
				JOINT LeftElbow
				{
					OFFSET	0.615844	-10.986600	-0.673886
					CHANNELS 3 Zrotation Xrotation Yrotation
					JOINT LeftWrist
					{
						OFFSET	0.826843	-10.854500	1.034220
						CHANNELS 3 Zrotation Xrotation Yrotation
						End Site
						{
							OFFSET	-1.679080	-8.456540	0.936217
						}
					}
				}
			}
		}
		JOINT RightCollar
		{
			OFFSET	-3.857650	15.070700	-0.011583
			CHANNELS 3 Zrotation Xrotation Yrotation
			JOINT RightShoulder
			{
				OFFSET	-3.979720	-1.940530	-0.165223
				CHANNELS 3 Zrotation Xrotation Yrotation
				JOINT RightElbow
				{
					OFFSET	-0.615845	-10.986600	-0.673886
					CHANNELS 3 Zrotation Xrotation Yrotation
					JOINT RightWrist
					{
						OFFSET	-0.826843	-10.854500	1.034220
						CHANNELS 3 Zrotation Xrotation Yrotation
						End Site
						{
							OFFSET	1.679080	-8.456540	0.936217
						}
					}
				}
			}
		}
		JOINT Neck
		{
			OFFSET	0.000000	15.101400	0.055730
			CHANNELS 3 Zrotation Xrotation Yrotation
			JOINT Head
			{
				OFFSET	0.000000	4.185120	1.488260
				CHANNELS 3 Zrotation Xrotation Yrotation
				End Site
				{
					OFFSET	0.000000	7.773420	-0.106016
				}
			}
		}
	}
}
MOTION
Frames:     14
Frame Time: 0.016667
1.001595	37.729214	-1.485533	2.628143	-8.170946	-12.143615	-4.424056	5.208328	-1.837213	-3.519499	1.939486	4.591055	6.221809	-1.721768	6.958614	-15.889286	-1.091768	-3.932396	5.023126	19.053179	-1.441872	6.635599	-8.813158	3.984784	-5.469092	7.110033	-1.443793	-4.039490	0.226884	2.896093	5.621539	-3.014732	2.854586	-5.940834	-6.908793	-10.394311	15.114718	1.257020	-16.400059	0.199290	-0.430131	1.788180	-2.809356	-3.357604	1.835046	-3.916490	-5.367017	13.744555	-19.201384	0.026484	12.867403	1.180863	8.154086	-0.209039	0.739508	3.528411	2.903355	
0.997878	37.730061	-1.488956	2.628143	-8.170946	-12.143615	-4.424056	5.208328	-1.837213	-3.519499	1.939486	4.591055	6.221809	-1.721768	6.958614	-15.889286	-1.091768	-3.932396	5.041025	19.045135	-1.438587	6.616942	-8.806647	3.974724	-5.455604	7.120732	-1.454881	-4.052634	0.215214	2.904710	5.621539	-3.014732	2.854586	-5.959451	-6.940331	-10.396040	15.019998	1.258399	-16.398462	0.186251	-0.441132	1.797636	-2.810431	-3.357532	1.818904	-3.931081	-5.371033	13.757665	-19.184492	0.029175	12.868288	1.160496	8.136497	-0.169664	0.747086	3.534806	2.874413	
0.995909	37.730492	-1.490731	2.628143	-8.170946	-12.143615	-4.424056	5.208328	-1.837213	-3.519499	1.939486	4.591055	6.221809	-1.721768	6.958614	-15.889286	-1.091768	-3.932396	5.050070	19.041185	-1.441074	6.608158	-8.802993	3.973823	-5.450994	7.124388	-1.458676	-4.057123	0.211223	2.907654	5.621539	-3.014732	2.854586	-5.975309	-6.967010	-10.397995	14.990493	1.275912	-16.401724	0.181798	-0.444895	1.800867	-2.811491	-3.357461	1.802989	-3.934085	-5.373123	13.772570	-19.179850	0.039338	12.868557	1.152137	8.130363	-0.156592	0.751027	3.537123	2.865102	
0.989898	37.731533	-1.495387	2.622814	-8.170561	-12.154113	-4.419711	5.208307	-1.827401	-3.519499	1.939486	4.591055	6.221809	-1.721768	6.958614	-15.883866	-1.093732	-3.922822	5.078326	19.028816	-1.446174	6.580302	-8.791850	3.968330	-5.432249	7.135907	-1.460955	-4.071472	0.198442	2.917073	5.621539	-3.014732	2.854586	-6.030315	-7.059415	-10.405095	14.934427	1.341541	-16.417562	0.167564	-0.456944	1.811206	-2.812560	-3.357389	1.786722	-3.932270	-5.374471	13.788670	-19.182434	0.051111	12.856760	1.122378	8.113805	-0.132218	0.762576	3.531035	2.851369	
0.987952	37.731644	-1.496281	2.617003	-8.170138	-12.165548	-4.414967	5.208287	-1.816721	-3.519499	1.939486	4.591055	6.221809	-1.721768	6.958614	-15.877956	-1.095865	-3.912400	5.087606	19.024805	-1.449385	6.571392	-8.788064	3.968077	-5.422666	7.139851	-1.454526	-4.076539	0.193914	2.920404	5.621539	-3.014732	2.854586	-6.048769	-7.090375	-10.407569	14.908029	1.387187	-16.420191	0.162538	-0.461213	1.814862	-2.813656	-3.357314	1.770046	-3.929620	-5.375720	13.805306	-19.186371	0.064372	12.842830	1.103277	8.108514	-0.133020	0.771485	3.517898	2.855225	
0.982127	37.732586	-1.500607	2.610868	-8.169681	-12.177607	-4.409958	5.208254	-1.805454	-3.519499	1.939486	4.591055	6.221809	-1.721768	6.958614	-15.871714	-1.098127	-3.901408	5.114589	19.013128	-1.458731	6.545484	-8.777045	3.967351	-5.402297	7.152137	-1.456193	-4.091869	0.180252	2.930470	5.621539	-3.014732	2.854586	-6.127502	-7.221538	-10.420343	14.813574	1.416920	-16.439682	0.147331	-0.474094	1.825911	-2.814742	-3.357238	1.753534	-3.926995	-5.376955	13.821782	-19.190763	0.079669	12.827683	1.057077	8.097181	-0.149473	0.784213	3.466532	2.877996	
0.980149	37.732845	-1.501930	2.607789	-8.169450	-12.183670	-4.407444	5.208238	-1.799791	-3.519499	1.939486	4.591055	6.221809	-1.721768	6.958614	-15.868579	-1.099263	-3.895883	5.123815	19.009129	-1.461923	6.536624	-8.773273	3.967103	-5.394687	7.156230	-1.454876	-4.097019	0.175660	2.933854	5.621539	-3.014732	2.854586	-6.154720	-7.266796	-10.424907	14.806493	1.407666	-16.450706	0.147860	-0.476660	1.823646	-2.820610	-3.359080	1.751509	-3.925723	-5.377552	13.829741	-19.193100	0.088089	12.819823	1.046106	8.094124	-0.155610	0.780580	3.436347	2.883429	
0.974452	37.733601	-1.505727	2.598816	-8.168777	-12.201299	-4.400115	5.208198	-1.783324	-3.519499	1.939486	4.591055	6.221809	-1.721768	6.958614	-15.859447	-1.102561	-3.879816	5.150403	18.997614	-1.471117	6.511090	-8.762415	3.966398	-5.371459	7.169022	-1.451958	-4.117921	0.174098	2.930663	5.622122	-3.030710	2.832150	-6.230532	-7.407777	-10.403152	14.722857	1.380098	-16.474924	0.150731	-0.484516	1.815258	-2.839916	-3.364996	1.748190	-3.922029	-5.379290	13.852903	-19.193474	0.089226	12.818691	1.014472	8.084027	-0.169963	0.771512	3.359361	2.897870	
0.972704	37.733822	-1.506865	2.595892	-8.168550	-12.207052	-4.397726	5.208178	-1.777950	-3.519499	1.939486	4.591055	6.221809	-1.721768	6.958614	-15.856467	-1.103645	-3.874573	5.158566	18.994076	-1.473941	6.503251	-8.759079	3.966183	-5.363647	7.173377	-1.451203	-4.126097	0.176351	2.926576	5.623110	-3.038958	2.825286	-6.255940	-7.453925	-10.433647	14.728386	1.397845	-16.447781	0.148216	-0.483045	1.810940	-2.843026	-3.371335	1.748703	-3.920843	-5.379851	13.860373	-19.193474	0.089226	12.818691	1.003855	8.080549	-0.174547	0.763871	3.316642	2.899576	
0.967592	37.734592	-1.510555	2.589777	-8.168085	-12.219054	-4.392729	5.208149	-1.766739	-3.519499	1.939486	4.591055	6.221809	-1.721768	6.958614	-15.850243	-1.105890	-3.863635	5.182287	18.983799	-1.482151	6.480470	-8.749393	3.965566	-5.342075	7.186693	-1.453997	-4.152278	0.186921	2.910151	5.626999	-3.067895	2.804097	-6.349071	-7.626752	-10.412663	14.721657	1.346222	-16.482296	0.137850	-0.475928	1.797245	-2.849801	-3.393318	1.749959	-3.917102	-5.381601	13.883743	-19.195154	0.108102	12.818728	0.971805	8.069990	-0.188303	0.760114	3.258961	2.917148	
0.965998	37.734936	-1.511981	2.589777	-8.168085	-12.219054	-4.392729	5.208149	-1.766739	-3.519499	1.939486	4.591055	6.221809	-1.721768	6.958614	-15.850243	-1.105890	-3.863635	5.189545	18.980656	-1.484655	6.473498	-8.746429	3.965373	-5.330420	7.196002	-1.463662	-4.167400	0.186651	2.906969	5.628749	-3.078958	2.797796	-6.379775	-7.684216	-10.402858	14.746038	1.407900	-16.494823	0.128252	-0.478399	1.797071	-2.851748	-3.400743	1.749771	-3.915784	-5.382218	13.891982	-19.196131	0.118907	12.818748	0.958378	8.042000	-0.193185	0.750819	3.243915	2.924213	
0.961451	37.735920	-1.516053	2.589777	-8.168085	-12.219054	-4.392729	5.208149	-1.766739	-3.519499	1.939486	4.591055	6.221809	-1.721768	6.958614	-15.850243	-1.105890	-3.863635	5.210243	18.971680	-1.491803	6.453616	-8.737971	3.964825	-5.318159	7.205781	-1.473825	-4.183958	0.188094	2.901766	5.626647	-3.096673	2.754441	-6.446564	-7.818969	-10.362181	14.722696	1.314316	-16.527367	0.120792	-0.467022	1.780886	-2.857050	-3.423142	1.748630	-3.911784	-5.384077	13.916883	-19.199081	0.151701	12.818816	0.937098	8.023330	-0.206212	0.729532	3.154636	2.928709	
0.959977	37.736240	-1.517375	2.589777	-8.168085	-12.219054	-4.392729	5.208149	-1.766739	-3.519499	1.939486	4.591055	6.221809	-1.721768	6.958614	-15.850243	-1.105890	-3.863635	5.216950	18.968761	-1.494104	6.447171	-8.735227	3.964640	-5.312065	7.210628	-1.478878	-4.189888	0.182794	2.905674	5.624421	-3.098844	2.735790	-6.471636	-7.868173	-10.350252	14.724797	1.311830	-16.538750	0.117466	-0.450151	1.761277	-2.859480	-3.446044	1.763183	-3.910438	-5.384695	13.925169	-19.200047	0.162271	12.818850	0.927022	8.011606	-0.213133	0.724632	3.134543	2.935344	
0.955749	37.737148	-1.521162	2.589777	-8.168085	-12.219054	-4.392729	5.208149	-1.766739	-3.519499	1.939486	4.591055	6.221809	-1.721768	6.958614	-15.850243	-1.105890	-3.863635	5.236194	18.960415	-1.500763	6.428685	-8.727363	3.964150	-5.293004	7.225828	-1.494687	-4.222427	0.202891	2.878332	5.632216	-3.138673	2.723034	-6.527793	-7.985349	-10.308781	14.747111	1.358374	-16.567188	0.098971	-0.450254	1.759168	-2.860639	-3.462241	1.753590	-3.906502	-5.386514	13.949480	-19.202391	0.188247	12.818915	0.895105	7.979242	-0.233028	0.720224	3.103991	2.961266	
